<?xml version="1.0" encoding="UTF-8" standalone="no"?>
<!DOCTYPE svg PUBLIC "-//W3C//DTD SVG 1.1//EN" "http://www.w3.org/Graphics/SVG/1.1/DTD/svg11.dtd">
<svg width="100%" height="100%" viewBox="0 0 512 512" version="1.1" xmlns="http://www.w3.org/2000/svg" xmlns:xlink="http://www.w3.org/1999/xlink" xml:space="preserve" xmlns:serif="http://www.serif.com/" style="fill-rule:evenodd;clip-rule:evenodd;stroke-linecap:round;stroke-linejoin:round;stroke-miterlimit:1.5;">
    <path d="M148.636,430.35L160.791,410.611C189.419,428.24 222.379,437.575 256,437.575C356.214,437.575 437.575,356.214 437.575,256C437.575,155.719 356.281,74.425 256,74.425L256,51.244C369.083,51.244 460.756,142.917 460.756,256C460.756,369.008 369.008,460.756 256,460.756C218.087,460.756 180.919,450.229 148.636,430.35Z" style="fill:white;stroke:black;stroke-width:7.33px;"/>
    <path d="M355.547,110.246C351.868,116.619 343.706,118.806 337.333,115.127C330.96,111.447 328.774,103.286 332.453,96.913L348.453,69.2C352.132,62.827 360.294,60.64 366.667,64.32C373.04,67.999 375.226,76.16 371.547,82.533L355.547,110.246ZM415.087,179.547C408.714,183.226 400.553,181.04 396.873,174.667C393.194,168.294 395.381,160.132 401.754,156.453L429.467,140.453C435.84,136.774 444.001,138.96 447.68,145.333C451.36,151.706 449.173,159.868 442.8,163.547L415.087,179.547ZM401.754,355.547C395.381,351.868 393.194,343.706 396.873,337.333C400.553,330.96 408.714,328.774 415.087,332.453L442.8,348.453C449.173,352.132 451.36,360.294 447.68,366.667C444.001,373.04 435.84,375.226 429.467,371.547L401.754,355.547ZM332.453,415.087C328.774,408.714 330.96,400.553 337.333,396.873C343.706,393.194 351.868,395.381 355.547,401.754L371.547,429.467C375.226,435.84 373.04,444.001 366.667,447.68C360.294,451.36 352.132,449.173 348.453,442.8L332.453,415.087ZM156.453,401.754C160.132,395.381 168.294,393.194 174.667,396.873C181.04,400.553 183.226,408.714 179.547,415.087L163.547,442.8C159.868,449.173 151.706,451.36 145.333,447.68C138.96,444.001 136.774,435.84 140.453,429.467L156.453,401.754ZM96.913,332.453C103.286,328.774 111.447,330.96 115.127,337.333C118.806,343.706 116.619,351.868 110.246,355.547L82.533,371.547C76.16,375.226 67.999,373.04 64.32,366.667C60.64,360.294 62.827,352.132 69.2,348.453L96.913,332.453ZM110.246,156.453C116.619,160.132 118.806,168.294 115.127,174.667C111.447,181.04 103.286,183.226 96.913,179.547L69.2,163.547C62.827,159.868 60.64,151.706 64.32,145.333C67.999,138.96 76.16,136.774 82.533,140.453L110.246,156.453ZM179.547,96.913C183.226,103.286 181.04,111.447 174.667,115.127C168.294,118.806 160.132,116.619 156.453,110.246L140.453,82.533C136.774,76.16 138.96,67.999 145.333,64.32C151.706,60.64 159.868,62.827 163.547,69.2L179.547,96.913ZM272.667,96C272.667,105.199 265.199,112.667 256,112.667C246.801,112.667 239.333,105.199 239.333,96L239.333,32C239.333,22.801 246.801,15.333 256,15.333C265.199,15.333 272.667,22.801 272.667,32L272.667,96ZM416,272.667C406.801,272.667 399.333,265.199 399.333,256C399.333,246.801 406.801,239.333 416,239.333L480,239.333C489.199,239.333 496.667,246.801 496.667,256C496.667,265.199 489.199,272.667 480,272.667L416,272.667ZM239.333,416C239.333,406.801 246.801,399.333 256,399.333C265.199,399.333 272.667,406.801 272.667,416L272.667,480C272.667,489.199 265.199,496.667 256,496.667C246.801,496.667 239.333,489.199 239.333,480L239.333,416ZM96,239.333C105.199,239.333 112.667,246.801 112.667,256C112.667,265.199 105.199,272.667 96,272.667L32,272.667C22.801,272.667 15.333,265.199 15.333,256C15.333,246.801 22.801,239.333 32,239.333L96,239.333Z"/>
</svg>
