<?xml version="1.0" encoding="UTF-8" standalone="no"?>
<!DOCTYPE svg PUBLIC "-//W3C//DTD SVG 1.1//EN" "http://www.w3.org/Graphics/SVG/1.1/DTD/svg11.dtd">
<svg width="100%" height="100%" viewBox="0 0 512 512" version="1.1" xmlns="http://www.w3.org/2000/svg" xmlns:xlink="http://www.w3.org/1999/xlink" xml:space="preserve" xmlns:serif="http://www.serif.com/" style="fill-rule:evenodd;clip-rule:evenodd;stroke-linejoin:round;stroke-miterlimit:2;">
    <path d="M401.612,396.784L401.702,396.871C363.517,436.365 310.935,458.667 256,458.667C144.145,458.667 53.333,367.855 53.333,256C53.333,144.07 144.07,53.333 256,53.333C261.887,53.333 266.667,58.113 266.667,64C266.667,69.887 261.887,74.667 256,74.667C155.852,74.667 74.667,155.852 74.667,256C74.667,356.081 155.919,437.333 256,437.333C305.153,437.333 352.2,417.38 386.365,382.042L386.455,382.129C388.373,380.147 391.06,378.913 394.034,378.913C399.853,378.913 404.577,383.638 404.577,389.457C404.577,392.302 403.447,394.886 401.612,396.784ZM245.333,112C245.333,106.113 250.113,101.333 256,101.333C261.887,101.333 266.667,106.113 266.667,112C266.667,112 266.667,251.582 266.667,251.582L343.542,328.458C347.705,332.62 347.705,339.38 343.542,343.542C339.38,347.705 332.62,347.705 328.458,343.542L248.458,263.542C246.457,261.542 245.333,258.829 245.333,256L245.333,112ZM308.867,58.699C315.403,60.45 319.288,67.179 317.537,73.716C315.785,80.252 309.056,84.137 302.52,82.386C295.983,80.634 292.099,73.905 293.85,67.369C295.601,60.832 302.33,56.948 308.867,58.699ZM358.131,79.105C363.991,82.488 366.002,89.993 362.618,95.854C359.235,101.714 351.73,103.725 345.869,100.342C340.009,96.958 337.998,89.453 341.382,83.593C344.765,77.732 352.27,75.721 358.131,79.105ZM400.434,111.566C405.219,116.351 405.219,124.12 400.434,128.905C395.649,133.69 387.88,133.69 383.095,128.905C378.31,124.12 378.31,116.351 383.095,111.566C387.88,106.781 395.649,106.781 400.434,111.566ZM432.895,153.869C436.279,159.73 434.268,167.235 428.407,170.618C422.547,174.002 415.042,171.991 411.658,166.131C408.275,160.27 410.286,152.765 416.146,149.382C422.007,145.998 429.512,148.009 432.895,153.869ZM453.301,203.133C455.052,209.67 451.168,216.399 444.631,218.15C438.095,219.901 431.366,216.017 429.614,209.48C427.863,202.944 431.748,196.215 438.284,194.463C444.821,192.712 451.55,196.597 453.301,203.133ZM460.261,256C460.261,262.767 454.767,268.261 448,268.261C441.233,268.261 435.739,262.767 435.739,256C435.739,249.233 441.233,243.739 448,243.739C454.767,243.739 460.261,249.233 460.261,256ZM453.301,308.867C451.55,315.403 444.821,319.288 438.284,317.537C431.748,315.785 427.863,309.056 429.614,302.52C431.366,295.983 438.095,292.099 444.631,293.85C451.168,295.601 455.052,302.33 453.301,308.867ZM432.895,358.131C429.512,363.991 422.007,366.002 416.146,362.618C410.286,359.235 408.275,351.73 411.658,345.869C415.042,340.009 422.547,337.998 428.407,341.382C434.268,344.765 436.279,352.27 432.895,358.131Z"/>
</svg>
